<?xml version="1.0" encoding="UTF-8"?>
<svg width="900px" height="184px" viewBox="0 0 900 184" version="1.1" xmlns="http://www.w3.org/2000/svg" xmlns:xlink="http://www.w3.org/1999/xlink">
    <!-- Generator: Sketch 51.3 (57544) - http://www.bohemiancoding.com/sketch -->
    <title>Desktop</title>
    <desc>Created with Sketch.</desc>
    <defs></defs>
    <g id="Desktop" stroke="none" stroke-width="1" fill="none" fill-rule="evenodd">
        <path d="M100.475586,61.3310547 L100.475586,68.0693359 C97.1878091,65.3186711 93.7861504,63.9433594 90.2705078,63.9433594 C86.3967905,63.9433594 83.1334768,65.334947 80.4804688,68.1181641 C77.8111846,70.885105 76.4765625,74.2704878 76.4765625,78.2744141 C76.4765625,82.229512 77.8111846,85.5660671 80.4804688,88.2841797 C83.1497529,91.0022922 86.4212046,92.3613281 90.2949219,92.3613281 C92.296885,92.3613281 93.9977144,92.0358105 95.3974609,91.3847656 C96.1787148,91.0592432 96.9884398,90.6197944 97.8266602,90.0664062 C98.6648805,89.5130181 99.5478469,88.845707 100.475586,88.0644531 L100.475586,94.9248047 C97.2203613,96.7640066 93.8024268,97.6835938 90.2216797,97.6835938 C84.834283,97.6835938 80.2363472,95.8037297 76.4277344,92.0439453 C72.6353977,88.2516086 70.7392578,83.6780867 70.7392578,78.3232422 C70.7392578,73.5217859 72.326156,69.2412297 75.5,65.4814453 C79.4062695,60.8753025 84.4599299,58.5722656 90.6611328,58.5722656 C94.0465664,58.5722656 97.3180181,59.4918528 100.475586,61.3310547 Z M105.480469,84.9394531 C105.480469,81.5051912 106.709298,78.5836709 109.166992,76.1748047 C111.624687,73.7659385 114.619448,72.5615234 118.151367,72.5615234 C121.699562,72.5615234 124.7106,73.7740764 127.18457,76.1992188 C129.625989,78.6243611 130.84668,81.6028469 130.84668,85.1347656 C130.84668,88.6992366 129.617851,91.6858604 127.160156,94.0947266 C124.686186,96.4873167 121.650734,97.6835938 118.053711,97.6835938 C114.48924,97.6835938 111.502616,96.4629028 109.09375,94.0214844 C106.684884,91.6126182 105.480469,88.5853047 105.480469,84.9394531 Z M111.095703,85.0371094 C111.095703,87.4134233 111.730462,89.2932874 113,90.6767578 C114.30209,92.0765044 116.019195,92.7763672 118.151367,92.7763672 C120.299815,92.7763672 122.016921,92.0846423 123.302734,90.7011719 C124.588548,89.3177014 125.231445,87.4703892 125.231445,85.1591797 C125.231445,82.8479702 124.588548,81.000658 123.302734,79.6171875 C122.000645,78.2174409 120.283539,77.5175781 118.151367,77.5175781 C116.051747,77.5175781 114.350918,78.2174409 113.048828,79.6171875 C111.746738,81.0169341 111.095703,82.8235566 111.095703,85.0371094 Z M142.150391,55.7646484 L142.150391,97 L136.657227,97 L136.657227,55.7646484 L142.150391,55.7646484 Z M147.985352,84.9394531 C147.985352,81.5051912 149.21418,78.5836709 151.671875,76.1748047 C154.12957,73.7659385 157.124331,72.5615234 160.65625,72.5615234 C164.204445,72.5615234 167.215482,73.7740764 169.689453,76.1992188 C172.130872,78.6243611 173.351562,81.6028469 173.351562,85.1347656 C173.351562,88.6992366 172.122734,91.6858604 169.665039,94.0947266 C167.191068,96.4873167 164.155617,97.6835938 160.558594,97.6835938 C156.994123,97.6835938 154.007499,96.4629028 151.598633,94.0214844 C149.189767,91.6126182 147.985352,88.5853047 147.985352,84.9394531 Z M153.600586,85.0371094 C153.600586,87.4134233 154.235345,89.2932874 155.504883,90.6767578 C156.806973,92.0765044 158.524078,92.7763672 160.65625,92.7763672 C162.804698,92.7763672 164.521803,92.0846423 165.807617,90.7011719 C167.093431,89.3177014 167.736328,87.4703892 167.736328,85.1591797 C167.736328,82.8479702 167.093431,81.000658 165.807617,79.6171875 C164.505527,78.2174409 162.788422,77.5175781 160.65625,77.5175781 C158.55663,77.5175781 156.855801,78.2174409 155.553711,79.6171875 C154.251621,81.0169341 153.600586,82.8235566 153.600586,85.0371094 Z M179.162109,73.2207031 L184.655273,73.2207031 L184.655273,75.3447266 C185.664393,74.2867786 186.559566,73.562502 187.34082,73.171875 C188.13835,72.7649719 189.082351,72.5615234 190.172852,72.5615234 C191.621427,72.5615234 193.135083,73.0335239 194.713867,73.9775391 L192.199219,79.0068359 C191.157547,78.2581343 190.140304,77.8837891 189.147461,77.8837891 C186.152654,77.8837891 184.655273,80.1461362 184.655273,84.6708984 L184.655273,97 L179.162109,97 L179.162109,73.2207031 Z M204.113281,73.2207031 L204.113281,97 L198.620117,97 L198.620117,73.2207031 L204.113281,73.2207031 Z M197.790039,63.3330078 C197.790039,62.3727166 198.13997,61.5426467 198.839844,60.8427734 C199.539717,60.1429001 200.377925,59.7929688 201.354492,59.7929688 C202.347336,59.7929688 203.193681,60.1429001 203.893555,60.8427734 C204.593428,61.5263706 204.943359,62.3645784 204.943359,63.3574219 C204.943359,64.3502654 204.593428,65.1966111 203.893555,65.8964844 C203.209958,66.5963577 202.37175,66.9462891 201.378906,66.9462891 C200.386063,66.9462891 199.539717,66.5963577 198.839844,65.8964844 C198.13997,65.1966111 197.790039,64.3421274 197.790039,63.3330078 Z M211.071289,73.2207031 L216.588867,73.2207031 L216.588867,75.4179688 C218.50945,73.5136624 220.674142,72.5615234 223.083008,72.5615234 C225.849949,72.5615234 228.006503,73.432283 229.552734,75.1738281 C230.887376,76.6549553 231.554688,79.0719233 231.554688,82.4248047 L231.554688,97 L226.037109,97 L226.037109,83.71875 C226.037109,81.3749883 225.711592,79.7555383 225.060547,78.8603516 C224.425778,77.9488887 223.270191,77.4931641 221.59375,77.4931641 C219.770824,77.4931641 218.476892,78.0953716 217.711914,79.2998047 C216.963212,80.4879617 216.588867,82.5631362 216.588867,85.5253906 L216.588867,97 L211.071289,97 L211.071289,73.2207031 Z M261.486328,96.4384766 C261.486328,97.5615291 261.449707,98.5502887 261.376465,99.4047852 C261.303222,100.259282 261.201498,101.012041 261.071289,101.663086 C260.680662,103.453459 259.915696,104.99153 258.776367,106.277344 C256.627919,108.751314 253.673847,109.988281 249.914062,109.988281 C246.740219,109.988281 244.12794,109.133798 242.077148,107.424805 C239.961252,105.666983 238.740562,103.23374 238.415039,100.125 L243.932617,100.125 C244.144207,101.296881 244.494138,102.200192 244.982422,102.834961 C246.12175,104.316088 247.78189,105.056641 249.962891,105.056641 C253.983093,105.056641 255.993164,102.590845 255.993164,97.6591797 L255.993164,94.3388672 C253.812164,96.568696 251.29754,97.6835938 248.449219,97.6835938 C245.21027,97.6835938 242.557302,96.5117305 240.490234,94.1679688 C238.406891,91.7916548 237.365234,88.8213069 237.365234,85.2568359 C237.365234,81.7900217 238.333649,78.8440876 240.270508,76.4189453 C242.353852,73.8473179 245.104475,72.5615234 248.522461,72.5615234 C251.517268,72.5615234 254.007477,73.6764211 255.993164,75.90625 L255.993164,73.2207031 L261.486328,73.2207031 L261.486328,96.4384766 Z M256.212891,85.1591797 C256.212891,82.8479702 255.594407,81.000658 254.357422,79.6171875 C253.10416,78.2011648 251.500986,77.4931641 249.547852,77.4931641 C247.464508,77.4931641 245.820644,78.2662683 244.616211,79.8125 C243.525711,81.1959705 242.980469,82.9863171 242.980469,85.1835938 C242.980469,87.3483181 243.525711,89.1223889 244.616211,90.5058594 C245.804368,92.0195388 247.448232,92.7763672 249.547852,92.7763672 C251.647471,92.7763672 253.307611,92.0114009 254.52832,90.4814453 C255.651373,89.0979749 256.212891,87.3239041 256.212891,85.1591797 Z M284.899414,97 L284.899414,59.3046875 L290.563477,59.3046875 C293.086276,59.3046875 295.096347,59.499998 296.59375,59.890625 C298.107429,60.281252 299.385086,60.940425 300.426758,61.8681641 C301.484706,62.8284553 302.322914,64.0247324 302.941406,65.4570312 C303.576175,66.9056062 303.893555,68.3704353 303.893555,69.8515625 C303.893555,72.5533989 302.860036,74.8401599 300.792969,76.7119141 C302.794932,77.3955112 304.373692,78.5917883 305.529297,80.3007812 C306.701178,81.993498 307.287109,83.9628794 307.287109,86.2089844 C307.287109,89.1549626 306.245453,91.6451721 304.162109,93.6796875 C302.908848,94.932949 301.500984,95.8037085 299.938477,96.2919922 C298.229484,96.7639998 296.089206,97 293.517578,97 L284.899414,97 Z M290.587891,75.4912109 L292.370117,75.4912109 C294.486013,75.4912109 296.036291,75.0232794 297.020996,74.0874023 C298.005702,73.1515253 298.498047,71.7721445 298.498047,69.9492188 C298.498047,68.1751213 297.993495,66.8282924 296.984375,65.9086914 C295.975255,64.9890905 294.510426,64.5292969 292.589844,64.5292969 L290.587891,64.5292969 L290.587891,75.4912109 Z M290.587891,91.6533203 L294.103516,91.6533203 C296.675143,91.6533203 298.563145,91.1487681 299.767578,90.1396484 C301.037116,89.0491482 301.671875,87.6656985 301.671875,85.9892578 C301.671875,84.3616455 301.06153,82.9944717 299.84082,81.8876953 C298.652663,80.7971951 296.528661,80.2519531 293.46875,80.2519531 L290.587891,80.2519531 L290.587891,91.6533203 Z M318.908203,55.7646484 L318.908203,97 L313.415039,97 L313.415039,55.7646484 L318.908203,55.7646484 Z M343.395508,73.2207031 L348.913086,73.2207031 L348.913086,97 L343.395508,97 L343.395508,94.5097656 C341.133127,96.6256616 338.699883,97.6835938 336.095703,97.6835938 C332.807926,97.6835938 330.089854,96.4954546 327.941406,94.1191406 C325.809234,91.6939983 324.743164,88.6666848 324.743164,85.0371094 C324.743164,81.4726384 325.809234,78.5022905 327.941406,76.1259766 C330.073578,73.7496626 332.742823,72.5615234 335.949219,72.5615234 C338.71616,72.5615234 341.198231,73.700835 343.395508,75.9794922 L343.395508,73.2207031 Z M330.358398,85.0371094 C330.358398,87.3157666 330.968744,89.1712168 332.189453,90.6035156 C333.442715,92.0520906 335.021475,92.7763672 336.925781,92.7763672 C338.960297,92.7763672 340.60416,92.0765044 341.857422,90.6767578 C343.110683,89.2281829 343.737305,87.3890085 343.737305,85.1591797 C343.737305,82.9293508 343.110683,81.0901765 341.857422,79.6416016 C340.60416,78.2255789 338.976573,77.5175781 336.974609,77.5175781 C335.086579,77.5175781 333.507819,78.2337168 332.238281,79.6660156 C330.98502,81.1145906 330.358398,82.9049373 330.358398,85.0371094 Z M374.352539,74.2460938 L374.352539,81.5458984 C373.099278,80.0159429 371.976242,78.9661487 370.983398,78.3964844 C370.006831,77.8105439 368.859382,77.5175781 367.541016,77.5175781 C365.473948,77.5175781 363.756843,78.2418547 362.389648,79.6904297 C361.022454,81.1390046 360.338867,82.9537651 360.338867,85.1347656 C360.338867,87.3645945 360.99804,89.1956309 362.316406,90.6279297 C363.651048,92.0602285 365.351878,92.7763672 367.418945,92.7763672 C368.737311,92.7763672 369.901037,92.4915393 370.910156,91.921875 C371.886724,91.3684868 373.034173,90.2942788 374.352539,88.6992188 L374.352539,95.9501953 C372.12271,97.1058 369.892915,97.6835938 367.663086,97.6835938 C363.984682,97.6835938 360.908541,96.4954546 358.43457,94.1191406 C355.9606,91.7265505 354.723633,88.7562026 354.723633,85.2080078 C354.723633,81.659813 355.976875,78.6650513 358.483398,76.2236328 C360.989921,73.7822144 364.066062,72.5615234 367.711914,72.5615234 C370.055676,72.5615234 372.269195,73.1230413 374.352539,74.2460938 Z M386.461914,55.7646484 L386.461914,80.9111328 L394.201172,73.2207031 L401.574219,73.2207031 L391.24707,83.2060547 L402.331055,97 L395.202148,97 L387.34082,86.9658203 L386.461914,87.8447266 L386.461914,97 L380.96875,97 L380.96875,55.7646484 L386.461914,55.7646484 Z M438.830078,73.2207031 L444.347656,73.2207031 L444.347656,97 L438.830078,97 L438.830078,94.5097656 C436.567697,96.6256616 434.134453,97.6835938 431.530273,97.6835938 C428.242497,97.6835938 425.524425,96.4954546 423.375977,94.1191406 C421.243804,91.6939983 420.177734,88.6666848 420.177734,85.0371094 C420.177734,81.4726384 421.243804,78.5022905 423.375977,76.1259766 C425.508149,73.7496626 428.177393,72.5615234 431.383789,72.5615234 C434.15073,72.5615234 436.632802,73.700835 438.830078,75.9794922 L438.830078,73.2207031 Z M425.792969,85.0371094 C425.792969,87.3157666 426.403314,89.1712168 427.624023,90.6035156 C428.877285,92.0520906 430.456045,92.7763672 432.360352,92.7763672 C434.394867,92.7763672 436.038731,92.0765044 437.291992,90.6767578 C438.545254,89.2281829 439.171875,87.3890085 439.171875,85.1591797 C439.171875,82.9293508 438.545254,81.0901765 437.291992,79.6416016 C436.038731,78.2255789 434.411143,77.5175781 432.40918,77.5175781 C430.521149,77.5175781 428.942389,78.2337168 427.672852,79.6660156 C426.41959,81.1145906 425.792969,82.9049373 425.792969,85.0371094 Z M451.28125,73.2207031 L456.798828,73.2207031 L456.798828,75.4179688 C458.719411,73.5136624 460.884103,72.5615234 463.292969,72.5615234 C466.05991,72.5615234 468.216464,73.432283 469.762695,75.1738281 C471.097337,76.6549553 471.764648,79.0719233 471.764648,82.4248047 L471.764648,97 L466.24707,97 L466.24707,83.71875 C466.24707,81.3749883 465.921553,79.7555383 465.270508,78.8603516 C464.635739,77.9488887 463.480152,77.4931641 461.803711,77.4931641 C459.980785,77.4931641 458.686853,78.0953716 457.921875,79.2998047 C457.173173,80.4879617 456.798828,82.5631362 456.798828,85.5253906 L456.798828,97 L451.28125,97 L451.28125,73.2207031 Z M496.227539,55.7646484 L501.745117,55.7646484 L501.745117,97 L496.227539,97 L496.227539,94.5097656 C494.062815,96.6256616 491.613295,97.6835938 488.878906,97.6835938 C485.623682,97.6835938 482.921886,96.4954546 480.773438,94.1191406 C478.641265,91.6939983 477.575195,88.6666848 477.575195,85.0371094 C477.575195,81.4889146 478.641265,78.5267046 480.773438,76.1503906 C482.889333,73.7578005 485.55044,72.5615234 488.756836,72.5615234 C491.540053,72.5615234 494.030262,73.700835 496.227539,75.9794922 L496.227539,55.7646484 Z M483.19043,85.0371094 C483.19043,87.3157666 483.800775,89.1712168 485.021484,90.6035156 C486.274746,92.0520906 487.853506,92.7763672 489.757812,92.7763672 C491.792328,92.7763672 493.436192,92.0765044 494.689453,90.6767578 C495.942715,89.2281829 496.569336,87.3890085 496.569336,85.1591797 C496.569336,82.9293508 495.942715,81.0901765 494.689453,79.6416016 C493.436192,78.2255789 491.808604,77.5175781 489.806641,77.5175781 C487.91861,77.5175781 486.33985,78.2337168 485.070312,79.6660156 C483.817051,81.1145906 483.19043,82.9049373 483.19043,85.0371094 Z M527.013672,59.3046875 L536.828125,84.5 L547.082031,57.4736328 L556.896484,84.5 L567.321289,59.3046875 L573.498047,59.3046875 L556.652344,99.3925781 L546.959961,72.6835938 L536.852539,99.4169922 L520.836914,59.3046875 L527.013672,59.3046875 Z M577.135742,55.7646484 L582.628906,55.7646484 L582.628906,75.1982422 C584.582041,73.4404209 586.738595,72.5615234 589.098633,72.5615234 C591.784193,72.5615234 593.932609,73.432283 595.543945,75.1738281 C596.91114,76.6875076 597.594727,79.1044756 597.594727,82.4248047 L597.594727,97 L592.101562,97 L592.101562,82.9375 C592.101562,81.0331936 591.763838,79.6538129 591.088379,78.7993164 C590.41292,77.9448199 589.326505,77.5175781 587.829102,77.5175781 C585.908519,77.5175781 584.557621,78.1116477 583.776367,79.2998047 C583.011389,80.5042378 582.628906,82.5712744 582.628906,85.5009766 L582.628906,97 L577.135742,97 L577.135742,55.7646484 Z M610.045898,73.2207031 L610.045898,97 L604.552734,97 L604.552734,73.2207031 L610.045898,73.2207031 Z M603.722656,63.3330078 C603.722656,62.3727166 604.072588,61.5426467 604.772461,60.8427734 C605.472334,60.1429001 606.310542,59.7929688 607.287109,59.7929688 C608.279953,59.7929688 609.126299,60.1429001 609.826172,60.8427734 C610.526045,61.5263706 610.875977,62.3645784 610.875977,63.3574219 C610.875977,64.3502654 610.526045,65.1966111 609.826172,65.8964844 C609.142575,66.5963577 608.304367,66.9462891 607.311523,66.9462891 C606.31868,66.9462891 605.472334,66.5963577 604.772461,65.8964844 C604.072588,65.1966111 603.722656,64.3421274 603.722656,63.3330078 Z M622.667969,78.3476562 L622.667969,97 L617.174805,97 L617.174805,78.3476562 L614.831055,78.3476562 L614.831055,73.2207031 L617.174805,73.2207031 L617.174805,64.5048828 L622.667969,64.5048828 L622.667969,73.2207031 L626.94043,73.2207031 L626.94043,78.3476562 L622.667969,78.3476562 Z M652.770508,86.4042969 L635.729492,86.4042969 C635.875977,88.3574316 636.510737,89.9117781 637.633789,91.0673828 C638.756842,92.2067114 640.197257,92.7763672 641.955078,92.7763672 C643.322272,92.7763672 644.453446,92.4508496 645.348633,91.7998047 C646.227543,91.1487598 647.22851,89.9443447 648.351562,88.1865234 L652.990234,90.7744141 C652.274085,91.9951233 651.517257,93.0408485 650.719727,93.9116211 C649.922197,94.7823937 649.067713,95.4985323 648.15625,96.0600586 C647.244787,96.6215848 646.260096,97.0325508 645.202148,97.2929688 C644.1442,97.5533867 642.996751,97.6835938 641.759766,97.6835938 C638.211571,97.6835938 635.363292,96.5442822 633.214844,94.265625 C631.066396,91.9706917 629.992188,88.9271023 629.992188,85.1347656 C629.992188,81.3749812 631.033844,78.3313918 633.117188,76.0039062 C635.216807,73.7089729 637.999983,72.5615234 641.466797,72.5615234 C644.966163,72.5615234 647.733063,73.6764211 649.767578,75.90625 C651.785817,78.1198027 652.794922,81.1878059 652.794922,85.1103516 L652.770508,86.4042969 Z M647.130859,81.9121094 C646.365882,78.9824072 644.518569,77.5175781 641.588867,77.5175781 C640.921546,77.5175781 640.294925,77.6193024 639.708984,77.8227539 C639.123044,78.0262054 638.590009,78.3191713 638.109863,78.7016602 C637.629718,79.084149 637.218752,79.5439426 636.876953,80.0810547 C636.535155,80.6181667 636.27474,81.2285122 636.095703,81.9121094 L647.130859,81.9121094 Z M680.944336,59.3046875 L680.944336,97 L675.255859,97 L675.255859,59.3046875 L680.944336,59.3046875 Z M688.952148,73.2207031 L694.445312,73.2207031 L694.445312,75.4179688 C695.50326,74.3111924 696.406572,73.562502 697.155273,73.171875 C697.952803,72.7649719 698.95377,72.5615234 700.158203,72.5615234 C702.843763,72.5615234 704.967766,73.7333867 706.530273,76.0771484 C708.255542,73.7333867 710.591131,72.5615234 713.537109,72.5615234 C718.891954,72.5615234 721.569336,75.8085613 721.569336,82.3027344 L721.569336,97 L716.051758,97 L716.051758,83.7919922 C716.051758,81.513335 715.775068,79.9020229 715.22168,78.9580078 C714.652015,77.9977166 713.716152,77.5175781 712.414062,77.5175781 C710.900383,77.5175781 709.797692,78.0872339 709.105957,79.2265625 C708.414222,80.3658911 708.068359,82.1969275 708.068359,84.7197266 L708.068359,97 L702.550781,97 L702.550781,83.8652344 C702.550781,79.6334424 701.33009,77.5175781 698.888672,77.5175781 C697.34244,77.5175781 696.215336,78.0953718 695.507324,79.2509766 C694.799313,80.4065813 694.445312,82.2294797 694.445312,84.7197266 L694.445312,97 L688.952148,97 L688.952148,73.2207031 Z M746.032227,73.2207031 L751.549805,73.2207031 L751.549805,97 L746.032227,97 L746.032227,94.5097656 C743.769845,96.6256616 741.336602,97.6835938 738.732422,97.6835938 C735.444645,97.6835938 732.726573,96.4954546 730.578125,94.1191406 C728.445953,91.6939983 727.379883,88.6666848 727.379883,85.0371094 C727.379883,81.4726384 728.445953,78.5022905 730.578125,76.1259766 C732.710297,73.7496626 735.379541,72.5615234 738.585938,72.5615234 C741.352878,72.5615234 743.83495,73.700835 746.032227,75.9794922 L746.032227,73.2207031 Z M732.995117,85.0371094 C732.995117,87.3157666 733.605463,89.1712168 734.826172,90.6035156 C736.079433,92.0520906 737.658194,92.7763672 739.5625,92.7763672 C741.597015,92.7763672 743.240879,92.0765044 744.494141,90.6767578 C745.747402,89.2281829 746.374023,87.3890085 746.374023,85.1591797 C746.374023,82.9293508 745.747402,81.0901765 744.494141,79.6416016 C743.240879,78.2255789 741.613291,77.5175781 739.611328,77.5175781 C737.723298,77.5175781 736.144538,78.2337168 734.875,79.6660156 C733.621739,81.1145906 732.995117,82.9049373 732.995117,85.0371094 Z M781.481445,96.4384766 C781.481445,97.5615291 781.444825,98.5502887 781.371582,99.4047852 C781.298339,100.259282 781.196615,101.012041 781.066406,101.663086 C780.675779,103.453459 779.910813,104.99153 778.771484,106.277344 C776.623036,108.751314 773.668964,109.988281 769.90918,109.988281 C766.735336,109.988281 764.123057,109.133798 762.072266,107.424805 C759.95637,105.666983 758.735679,103.23374 758.410156,100.125 L763.927734,100.125 C764.139324,101.296881 764.489255,102.200192 764.977539,102.834961 C766.116868,104.316088 767.777007,105.056641 769.958008,105.056641 C773.97821,105.056641 775.988281,102.590845 775.988281,97.6591797 L775.988281,94.3388672 C773.807281,96.568696 771.292657,97.6835938 768.444336,97.6835938 C765.205387,97.6835938 762.552419,96.5117305 760.485352,94.1679688 C758.402008,91.7916548 757.360352,88.8213069 757.360352,85.2568359 C757.360352,81.7900217 758.328766,78.8440876 760.265625,76.4189453 C762.348969,73.8473179 765.099592,72.5615234 768.517578,72.5615234 C771.512385,72.5615234 774.002594,73.6764211 775.988281,75.90625 L775.988281,73.2207031 L781.481445,73.2207031 L781.481445,96.4384766 Z M776.208008,85.1591797 C776.208008,82.8479702 775.589524,81.000658 774.352539,79.6171875 C773.099278,78.2011648 771.496104,77.4931641 769.542969,77.4931641 C767.459625,77.4931641 765.815761,78.2662683 764.611328,79.8125 C763.520828,81.1959705 762.975586,82.9863171 762.975586,85.1835938 C762.975586,87.3483181 763.520828,89.1223889 764.611328,90.5058594 C765.799485,92.0195388 767.443349,92.7763672 769.542969,92.7763672 C771.642589,92.7763672 773.302728,92.0114009 774.523438,90.4814453 C775.64649,89.0979749 776.208008,87.3239041 776.208008,85.1591797 Z M810.070312,86.4042969 L793.029297,86.4042969 C793.175782,88.3574316 793.810541,89.9117781 794.933594,91.0673828 C796.056646,92.2067114 797.497062,92.7763672 799.254883,92.7763672 C800.622077,92.7763672 801.753251,92.4508496 802.648438,91.7998047 C803.527348,91.1487598 804.528315,89.9443447 805.651367,88.1865234 L810.290039,90.7744141 C809.57389,91.9951233 808.817061,93.0408485 808.019531,93.9116211 C807.222001,94.7823937 806.367518,95.4985323 805.456055,96.0600586 C804.544592,96.6215848 803.559901,97.0325508 802.501953,97.2929688 C801.444005,97.5533867 800.296556,97.6835938 799.05957,97.6835938 C795.511375,97.6835938 792.663097,96.5442822 790.514648,94.265625 C788.3662,91.9706917 787.291992,88.9271023 787.291992,85.1347656 C787.291992,81.3749812 788.333648,78.3313918 790.416992,76.0039062 C792.516612,73.7089729 795.299787,72.5615234 798.766602,72.5615234 C802.265968,72.5615234 805.032867,73.6764211 807.067383,75.90625 C809.085622,78.1198027 810.094727,81.1878059 810.094727,85.1103516 L810.070312,86.4042969 Z M804.430664,81.9121094 C803.665686,78.9824072 801.818374,77.5175781 798.888672,77.5175781 C798.221351,77.5175781 797.594729,77.6193024 797.008789,77.8227539 C796.422849,78.0262054 795.889814,78.3191713 795.409668,78.7016602 C794.929522,79.084149 794.518556,79.5439426 794.176758,80.0810547 C793.834959,80.6181667 793.574545,81.2285122 793.395508,81.9121094 L804.430664,81.9121094 Z M829.894531,77.2734375 L825.353516,79.6904297 C824.637366,78.2255786 823.750331,77.4931641 822.692383,77.4931641 C822.187823,77.4931641 821.756512,77.6599918 821.398438,77.9936523 C821.040363,78.3273129 820.861328,78.7545547 820.861328,79.2753906 C820.861328,80.1868535 821.91926,81.0901648 824.035156,81.9853516 C826.948582,83.238613 828.909826,84.3942004 829.918945,85.4521484 C830.928065,86.5100964 831.432617,87.9342358 831.432617,89.7246094 C831.432617,92.0195427 830.586271,93.9400964 828.893555,95.4863281 C827.249666,96.9511792 825.264009,97.6835938 822.936523,97.6835938 C818.948873,97.6835938 816.125008,95.7386262 814.464844,91.8486328 L819.152344,89.6757812 C819.803389,90.8151099 820.299803,91.5393865 820.641602,91.8486328 C821.308923,92.4671255 822.106441,92.7763672 823.03418,92.7763672 C824.889658,92.7763672 825.817383,91.9300215 825.817383,90.2373047 C825.817383,89.2607373 825.101244,88.3492881 823.668945,87.5029297 C823.115557,87.2262356 822.562177,86.9576836 822.008789,86.6972656 C821.455401,86.4368477 820.893883,86.1682957 820.324219,85.8916016 C818.729159,85.1103477 817.606123,84.3291055 816.955078,83.5478516 C816.124996,82.5550081 815.709961,81.2773516 815.709961,79.7148438 C815.709961,77.6477761 816.417962,75.9388088 817.833984,74.5878906 C819.282559,73.2369724 821.040354,72.5615234 823.107422,72.5615234 C826.151057,72.5615234 828.413404,74.1321458 829.894531,77.2734375 Z M309.113281,126.732422 L312.848633,134.876953 L316.876953,125.428711 L320.93457,134.876953 L324.625977,126.732422 L328.317383,126.732422 L320.84668,142.069336 L316.876953,132.884766 L312.863281,142.069336 L305.407227,126.732422 L309.113281,126.732422 Z M333.839844,126.732422 L333.839844,141 L330.543945,141 L330.543945,126.732422 L333.839844,126.732422 Z M330.045898,120.799805 C330.045898,120.22363 330.255857,119.725588 330.675781,119.305664 C331.095705,118.88574 331.59863,118.675781 332.18457,118.675781 C332.780276,118.675781 333.288084,118.88574 333.708008,119.305664 C334.127932,119.715822 334.337891,120.218747 334.337891,120.814453 C334.337891,121.410159 334.127932,121.917967 333.708008,122.337891 C333.29785,122.757815 332.794925,122.967773 332.199219,122.967773 C331.603513,122.967773 331.095705,122.757815 330.675781,122.337891 C330.255857,121.917967 330.045898,121.405276 330.045898,120.799805 Z M341.413086,129.808594 L341.413086,141 L338.117188,141 L338.117188,129.808594 L336.710938,129.808594 L336.710938,126.732422 L338.117188,126.732422 L338.117188,121.50293 L341.413086,121.50293 L341.413086,126.732422 L343.976562,126.732422 L343.976562,129.808594 L341.413086,129.808594 Z M346.818359,116.258789 L350.114258,116.258789 L350.114258,127.918945 C351.286139,126.864253 352.580071,126.336914 353.996094,126.336914 C355.60743,126.336914 356.89648,126.85937 357.863281,127.904297 C358.683598,128.812505 359.09375,130.262685 359.09375,132.254883 L359.09375,141 L355.797852,141 L355.797852,132.5625 C355.797852,131.419916 355.595217,130.592288 355.189941,130.07959 C354.784666,129.566892 354.132817,129.310547 353.234375,129.310547 C352.082025,129.310547 351.271487,129.666989 350.802734,130.379883 C350.343748,131.102543 350.114258,132.342765 350.114258,134.100586 L350.114258,141 L346.818359,141 L346.818359,116.258789 Z M373.15625,141 L373.15625,116.844727 L389.650391,134.100586 L389.650391,118.382812 L393.063477,118.382812 L393.063477,142.376953 L376.569336,125.165039 L376.569336,141 L373.15625,141 Z M411.183594,134.642578 L400.958984,134.642578 C401.046875,135.814459 401.427731,136.747067 402.101562,137.44043 C402.775394,138.124027 403.639643,138.46582 404.694336,138.46582 C405.514653,138.46582 406.193357,138.27051 406.730469,137.879883 C407.257815,137.489256 407.858395,136.766607 408.532227,135.711914 L411.31543,137.264648 C410.88574,137.997074 410.431643,138.624509 409.953125,139.146973 C409.474607,139.669436 408.961917,140.099119 408.415039,140.436035 C407.868161,140.772951 407.277347,141.01953 406.642578,141.175781 C406.007809,141.332032 405.31934,141.410156 404.577148,141.410156 C402.448232,141.410156 400.739264,140.726569 399.450195,139.359375 C398.161126,137.982415 397.516602,136.156261 397.516602,133.880859 C397.516602,131.624989 398.141595,129.798835 399.391602,128.402344 C400.651373,127.025384 402.321279,126.336914 404.401367,126.336914 C406.500987,126.336914 408.161127,127.005853 409.381836,128.34375 C410.592779,129.671882 411.198242,131.512684 411.198242,133.866211 L411.183594,134.642578 Z M407.799805,131.947266 C407.340818,130.189444 406.232431,129.310547 404.474609,129.310547 C404.074217,129.310547 403.698244,129.371581 403.34668,129.493652 C402.995115,129.615723 402.675294,129.791503 402.387207,130.020996 C402.09912,130.250489 401.85254,130.526366 401.647461,130.848633 C401.442382,131.1709 401.286133,131.537107 401.178711,131.947266 L407.799805,131.947266 Z M418.083008,126.732422 L418.083008,134.920898 C418.083008,137.284192 419.015616,138.46582 420.880859,138.46582 C422.746103,138.46582 423.678711,137.284192 423.678711,134.920898 L423.678711,126.732422 L426.974609,126.732422 L426.974609,134.994141 C426.974609,136.136724 426.833009,137.123043 426.549805,137.953125 C426.276366,138.695316 425.802738,139.364255 425.128906,139.959961 C424.015619,140.926763 422.599618,141.410156 420.880859,141.410156 C419.171866,141.410156 417.760748,140.926763 416.647461,139.959961 C415.963864,139.364255 415.48047,138.695316 415.197266,137.953125 C414.923827,137.289059 414.787109,136.302741 414.787109,134.994141 L414.787109,126.732422 L418.083008,126.732422 Z M431.134766,126.732422 L434.430664,126.732422 L434.430664,128.006836 C435.036136,127.372067 435.57324,126.937501 436.041992,126.703125 C436.52051,126.458983 437.086911,126.336914 437.741211,126.336914 C438.610356,126.336914 439.51855,126.620114 440.46582,127.186523 L438.957031,130.204102 C438.332028,129.754881 437.721683,129.530273 437.125977,129.530273 C435.329093,129.530273 434.430664,130.887682 434.430664,133.602539 L434.430664,141 L431.134766,141 L431.134766,126.732422 Z M452.667969,126.732422 L455.978516,126.732422 L455.978516,141 L452.667969,141 L452.667969,139.505859 C451.31054,140.775397 449.850594,141.410156 448.288086,141.410156 C446.31542,141.410156 444.684577,140.697273 443.395508,139.271484 C442.116205,137.816399 441.476562,136.000011 441.476562,133.822266 C441.476562,131.683583 442.116205,129.901374 443.395508,128.475586 C444.674811,127.049798 446.276358,126.336914 448.200195,126.336914 C449.86036,126.336914 451.349603,127.020501 452.667969,128.387695 L452.667969,126.732422 Z M444.845703,133.822266 C444.845703,135.18946 445.21191,136.30273 445.944336,137.162109 C446.696293,138.031254 447.643549,138.46582 448.786133,138.46582 C450.006842,138.46582 450.99316,138.045903 451.745117,137.206055 C452.497074,136.33691 452.873047,135.233405 452.873047,133.895508 C452.873047,132.55761 452.497074,131.454106 451.745117,130.584961 C450.99316,129.735347 450.016608,129.310547 448.81543,129.310547 C447.682612,129.310547 446.735355,129.74023 445.973633,130.599609 C445.221676,131.468754 444.845703,132.542962 444.845703,133.822266 Z M463.43457,116.258789 L463.43457,141 L460.138672,141 L460.138672,116.258789 L463.43457,116.258789 Z M477.49707,141 L477.49707,116.844727 L493.991211,134.100586 L493.991211,118.382812 L497.404297,118.382812 L497.404297,142.376953 L480.910156,125.165039 L480.910156,141 L477.49707,141 Z M515.524414,134.642578 L505.299805,134.642578 C505.387696,135.814459 505.768551,136.747067 506.442383,137.44043 C507.116214,138.124027 507.980463,138.46582 509.035156,138.46582 C509.855473,138.46582 510.534177,138.27051 511.071289,137.879883 C511.598635,137.489256 512.199215,136.766607 512.873047,135.711914 L515.65625,137.264648 C515.22656,137.997074 514.772463,138.624509 514.293945,139.146973 C513.815427,139.669436 513.302737,140.099119 512.755859,140.436035 C512.208982,140.772951 511.618167,141.01953 510.983398,141.175781 C510.34863,141.332032 509.66016,141.410156 508.917969,141.410156 C506.789052,141.410156 505.080085,140.726569 503.791016,139.359375 C502.501947,137.982415 501.857422,136.156261 501.857422,133.880859 C501.857422,131.624989 502.482416,129.798835 503.732422,128.402344 C504.992194,127.025384 506.662099,126.336914 508.742188,126.336914 C510.841807,126.336914 512.501947,127.005853 513.722656,128.34375 C514.9336,129.671882 515.539062,131.512684 515.539062,133.866211 L515.524414,134.642578 Z M512.140625,131.947266 C511.681638,130.189444 510.573251,129.310547 508.81543,129.310547 C508.415037,129.310547 508.039064,129.371581 507.6875,129.493652 C507.335936,129.615723 507.016115,129.791503 506.728027,130.020996 C506.43994,130.250489 506.19336,130.526366 505.988281,130.848633 C505.783202,131.1709 505.626954,131.537107 505.519531,131.947266 L512.140625,131.947266 Z M522.790039,129.808594 L522.790039,141 L519.494141,141 L519.494141,129.808594 L518.087891,129.808594 L518.087891,126.732422 L519.494141,126.732422 L519.494141,121.50293 L522.790039,121.50293 L522.790039,126.732422 L525.353516,126.732422 L525.353516,129.808594 L522.790039,129.808594 Z M529.381836,126.732422 L533.117188,134.876953 L537.145508,125.428711 L541.203125,134.876953 L544.894531,126.732422 L548.585938,126.732422 L541.115234,142.069336 L537.145508,132.884766 L533.131836,142.069336 L525.675781,126.732422 L529.381836,126.732422 Z M549.59668,133.763672 C549.59668,131.703115 550.333977,129.950203 551.808594,128.504883 C553.28321,127.059563 555.080068,126.336914 557.199219,126.336914 C559.328136,126.336914 561.134758,127.064446 562.619141,128.519531 C564.083992,129.974617 564.816406,131.761708 564.816406,133.880859 C564.816406,136.019542 564.079109,137.811516 562.604492,139.256836 C561.12011,140.69239 559.298839,141.410156 557.140625,141.410156 C555.001942,141.410156 553.209968,140.677742 551.764648,139.212891 C550.319329,137.767571 549.59668,135.951183 549.59668,133.763672 Z M552.96582,133.822266 C552.96582,135.248054 553.346676,136.375972 554.108398,137.206055 C554.889652,138.045903 555.919915,138.46582 557.199219,138.46582 C558.488288,138.46582 559.518551,138.050785 560.290039,137.220703 C561.061527,136.390621 561.447266,135.282233 561.447266,133.895508 C561.447266,132.508782 561.061527,131.400395 560.290039,130.570312 C559.508785,129.730465 558.478522,129.310547 557.199219,129.310547 C555.939447,129.310547 554.918949,129.730465 554.137695,130.570312 C553.356441,131.41016 552.96582,132.494134 552.96582,133.822266 Z M568.302734,126.732422 L571.598633,126.732422 L571.598633,128.006836 C572.204105,127.372067 572.741209,126.937501 573.209961,126.703125 C573.688479,126.458983 574.25488,126.336914 574.90918,126.336914 C575.778325,126.336914 576.686519,126.620114 577.633789,127.186523 L576.125,130.204102 C575.499997,129.754881 574.889651,129.530273 574.293945,129.530273 C572.497061,129.530273 571.598633,130.887682 571.598633,133.602539 L571.598633,141 L568.302734,141 L568.302734,126.732422 Z M583.273438,116.258789 L583.273438,131.34668 L587.916992,126.732422 L592.34082,126.732422 L586.144531,132.723633 L592.794922,141 L588.517578,141 L583.800781,134.979492 L583.273438,135.506836 L583.273438,141 L579.977539,141 L579.977539,116.258789 L583.273438,116.258789 Z M603.209961,129.164062 L600.485352,130.614258 C600.055662,129.735347 599.523441,129.295898 598.888672,129.295898 C598.585936,129.295898 598.32715,129.395995 598.112305,129.596191 C597.89746,129.796388 597.790039,130.052733 597.790039,130.365234 C597.790039,130.912112 598.424798,131.454099 599.694336,131.991211 C601.442392,132.743168 602.619138,133.43652 603.224609,134.071289 C603.830081,134.706058 604.132812,135.560542 604.132812,136.634766 C604.132812,138.011726 603.625005,139.164058 602.609375,140.091797 C601.623042,140.970708 600.431648,141.410156 599.035156,141.410156 C596.642566,141.410156 594.948247,140.243176 593.952148,137.90918 L596.764648,136.605469 C597.155275,137.289066 597.453124,137.723632 597.658203,137.90918 C598.058596,138.280275 598.537107,138.46582 599.09375,138.46582 C600.207037,138.46582 600.763672,137.958013 600.763672,136.942383 C600.763672,136.356442 600.333989,135.809573 599.474609,135.301758 C599.142576,135.135741 598.810549,134.97461 598.478516,134.818359 C598.146483,134.662109 597.809572,134.500977 597.467773,134.334961 C596.510737,133.866209 595.836916,133.397463 595.446289,132.928711 C594.94824,132.333005 594.699219,131.566411 594.699219,130.628906 C594.699219,129.388666 595.124019,128.363285 595.973633,127.552734 C596.842778,126.742183 597.897455,126.336914 599.137695,126.336914 C600.963876,126.336914 602.321285,127.279287 603.209961,129.164062 Z" id="Coloring-Black-and-W" fill="#1E1E1E"></path>
    </g>
</svg>